# xmcd CD database file
#
# Track frame offsets:
#	150
#	14532
#	28296
#	42059
#	57015
#	72671
#	85812
#	100202
#	114740
#	128279
#	141050
#	154784
#	169470
#	183414
#	197393
#	209949
#	224120
#	238694
#	251006
#	262405
#	275246
#	287776
#	300439
#	312359
#
# Disc length: 4343 seconds
#
# Revision: 0
# Processed by: cddbd v1.5.2PL0 Copyright (c) Steve Scherf et al.
# Submitted via: CDex 1.82
#
DISCID=7b10f518
DTITLE=Washboard Sam - The Washboard Sam Collection 1935-1953
DYEAR=2014
DGENRE=Blues
TTITLE0=(Mama) Don't 'Low (1935)
TTITLE1=Jesse James Blues (1935)
TTITLE2=Who Pumped The Wind In My Donut  (1935)
TTITLE3=You Done Tore Your Playhouse Down (1936)
TTITLE4=I'm A Prowlin' Groundhog (1936)
TTITLE5=Don't Tear My Clothes (1936)
TTITLE6=Mixed-Up Blues (1936)
TTITLE7=Razor Cuttin' Man (1936)
TTITLE8=I Love All My Women (1936)
TTITLE9=Big Woman (1936)
TTITLE10=The Big Boat (1937)
TTITLE11=Easy Ridin' Mama (1937)
TTITLE12=Back Door Blues (1937)
TTITLE13=We Gonna Move (1937)
TTITLE14=I'm On My Way Blues (1937)
TTITLE15=Beer Garden Blues (1937)
TTITLE16=Ladies' Man (1937)
TTITLE17=Tow Boat Blues (1938)
TTITLE18=Barbeque (1938)
TTITLE19=Mountain Blues (1938)
TTITLE20=Phantom Black Snake (1938)
TTITLE21=Yellow, Black And Brown (1938)
TTITLE22=I'm Gonna Keep My Hair Parted In The Middle (1938)
TTITLE23=Save It For Me (1938)
EXTD=YEAR: 2014
EXTT0=
EXTT1=
EXTT2=
EXTT3=
EXTT4=
EXTT5=
EXTT6=
EXTT7=
EXTT8=
EXTT9=
EXTT10=
EXTT11=
EXTT12=
EXTT13=
EXTT14=
EXTT15=
EXTT16=
EXTT17=
EXTT18=
EXTT19=
EXTT20=
EXTT21=
EXTT22=
EXTT23=
PLAYORDER=
